HIERARCHY
ROOT SpineBase
{
  OFFSET 0.000000 0.000000 0.000000
  CHANNELS 6 Xposition Yposition Zposition Zrotation Xrotation Yrotation
  JOINT SpineMid
  {
    OFFSET -0.000000 28.910301 0.000000
    CHANNELS 3 Zrotation Xrotation Yrotation
    JOINT SpineShoulder
    {
      OFFSET -0.027477 21.457860 -0.672878
      CHANNELS 3 Zrotation Xrotation Yrotation
      JOINT Neck
      {
        OFFSET -0.032910 7.095251 -0.518576
        CHANNELS 3 Zrotation Xrotation Yrotation
        JOINT Head
        {
          OFFSET -0.810384 12.166587 -0.148481
          CHANNELS 3 Zrotation Xrotation Yrotation
          End Site
          {
            OFFSET 0 0 0
          }
        }
      }
      JOINT ShoulderLeft
      {
        OFFSET -16.442307 -1.503214 4.187867
        CHANNELS 3 Zrotation Xrotation Yrotation
        JOINT ElbowLeft
        {
          OFFSET -5.941052 -23.880718 5.390811
          CHANNELS 3 Zrotation Xrotation Yrotation
          JOINT WristLeft
          {
            OFFSET -6.669674 -22.791013 0.168956
            CHANNELS 3 Zrotation Xrotation Yrotation
            JOINT HandLeft
            {
              OFFSET -1.418350 -5.919724 -0.036980
              CHANNELS 3 Zrotation Xrotation Yrotation
              JOINT HandTipLeft
              {
                OFFSET -1.048665 -6.108813 -1.850669
                CHANNELS 3 Zrotation Xrotation Yrotation
                End Site
                {
                  OFFSET 0 0 0
                }
              }
              JOINT ThumbLeft
              {
                OFFSET -1.574244 -0.655977 -0.841920
                CHANNELS 3 Zrotation Xrotation Yrotation
                End Site
                {
                  OFFSET 0 0 0
                }
              }
            }
          }
        }
      }
      JOINT ShoulderRight
      {
        OFFSET 15.697741 -2.281934 -3.872904
        CHANNELS 3 Zrotation Xrotation Yrotation
        JOINT ElbowRight
        {
          OFFSET 6.165038 -27.395730 -1.354832
          CHANNELS 3 Zrotation Xrotation Yrotation
          JOINT WristRight
          {
            OFFSET 1.275374 -21.095212 -3.751862
            CHANNELS 3 Zrotation Xrotation Yrotation
            JOINT HandRight
            {
              OFFSET -0.998719 -7.120670 -0.618455
              CHANNELS 3 Zrotation Xrotation Yrotation
              JOINT HandTipRight
              {
                OFFSET -0.014332 -6.345064 -0.614165
                CHANNELS 3 Zrotation Xrotation Yrotation
                End Site
                {
                  OFFSET 0 0 0
                }
              }
              JOINT ThumbRight
              {
                OFFSET -3.811428 0.784338 -0.350429
                CHANNELS 3 Zrotation Xrotation Yrotation
                End Site
                {
                  OFFSET 0 0 0
                }
              }
            }
          }
        }
      }
    }
  }
  JOINT HipLeft
  {
    OFFSET -6.136333 0.267567 -2.273311
    CHANNELS 3 Zrotation Xrotation Yrotation
    JOINT KneeLeft
    {
      OFFSET -9.570189 -30.181059 2.657402
      CHANNELS 3 Zrotation Xrotation Yrotation
      JOINT AnkleLeft
      {
        OFFSET -4.208697 -37.984649 7.124003
        CHANNELS 3 Zrotation Xrotation Yrotation
        JOINT FootLeft
        {
          OFFSET -2.255500 -3.876583 -12.813234
          CHANNELS 3 Zrotation Xrotation Yrotation
          End Site
          {
            OFFSET 0 0 0
          }
        }
      }
    }
  }
  JOINT HipRight
  {
    OFFSET 5.538769 0.918438 -4.421955
    CHANNELS 3 Zrotation Xrotation Yrotation
    JOINT KneeRight
    {
      OFFSET 4.498628 -29.352963 2.104356
      CHANNELS 3 Zrotation Xrotation Yrotation
      JOINT AnkleRight
      {
        OFFSET -0.353119 -37.898891 8.274113
        CHANNELS 3 Zrotation Xrotation Yrotation
        JOINT FootRight
        {
          OFFSET -2.204065 -4.694608 -11.314764
          CHANNELS 3 Zrotation Xrotation Yrotation
          End Site
          {
            OFFSET 0 0 0
          }
        }
      }
    }
  }
}
MOTION
Frames: 5
Frame Time: 0.033333
33.526665 75.365855 371.942864 -0.653351 -0.619795 19.892128 0.161996 -0.296226 -19.911512 0.071511 -0.294212 -0.017026 8.106718 -2.593101 -0.028427 0.000000 0.000000 0.000000 -1.146198 25.403426 -6.369317 110.329327 50.861784 -86.491167 -12.487375 -5.647973 -7.912365 1.900638 -40.870111 16.968552 0.000000 0.000000 0.000000 0.000000 0.000000 0.000000 -1.756952 21.398632 5.122321 -97.403732 14.933558 15.783725 16.133907 20.214660 0.809039 -23.381460 -12.094771 -17.669680 0.000000 0.000000 0.000000 0.000000 0.000000 0.000000 2.448183 0.427859 -19.972667 -1.221954 -2.381272 0.309559 -0.303779 -4.075598 3.877535 0.000000 0.000000 0.000000 2.010660 -3.667527 -20.202985 -1.724592 1.379913 0.565878 -3.229359 6.743431 3.369111 0.000000 0.000000 0.000000
33.542614 75.367085 371.946295 -0.643010 -0.657889 19.859489 0.151496 -0.293401 -19.879138 0.067621 -0.305916 -0.017560 8.130755 -2.456260 -0.034605 0.000000 0.000000 0.000000 -1.296457 25.515173 -6.379923 110.745729 50.698371 -86.292912 -13.939732 -6.617411 -9.353351 4.416267 -41.524574 19.508933 0.000000 0.000000 0.000000 0.000000 0.000000 0.000000 -2.442150 21.779308 5.385639 -96.371101 15.674572 16.179512 12.376809 17.985311 -1.382277 -13.243521 -6.189042 -3.384041 0.000000 0.000000 0.000000 0.000000 0.000000 0.000000 2.543775 0.432518 -19.932243 -1.344907 -2.384470 0.295191 -0.240350 -4.433574 4.026547 0.000000 0.000000 0.000000 2.113692 -3.438271 -20.136819 -1.640725 1.317118 0.548228 -3.374620 6.577519 3.433983 0.000000 0.000000 0.000000
33.554642 75.382678 371.950467 -0.656535 -0.683775 19.921183 0.161641 -0.301457 -19.941268 0.052928 -0.317886 -0.018809 8.207528 -2.326216 -0.038032 0.000000 0.000000 0.000000 -0.805578 25.456061 -6.362729 110.226730 50.456719 -86.130720 -14.641218 -6.701254 -10.418068 2.079387 -40.635623 16.731282 0.000000 0.000000 0.000000 0.000000 0.000000 0.000000 -3.083769 22.055850 5.621795 -94.346592 17.589067 17.848585 4.214266 10.791724 -9.216529 -3.950832 -0.201938 7.431350 0.000000 0.000000 0.000000 0.000000 0.000000 0.000000 2.587700 0.254036 -19.928218 -1.368685 -2.236283 0.249833 -0.859659 -1.758423 3.997202 0.000000 0.000000 0.000000 2.201277 -3.210756 -20.166817 -1.493087 1.104209 0.538684 -3.547574 6.553609 3.495269 0.000000 0.000000 0.000000
33.529255 75.389294 371.962854 -0.701698 -0.701249 19.971084 0.197065 -0.305179 -19.992070 0.034132 -0.322652 -0.020615 8.253079 -2.294731 -0.037738 0.000000 0.000000 0.000000 -0.469387 25.738618 -6.443371 109.606852 50.542029 -85.720300 -14.706820 -6.628933 -10.611716 -0.989329 -41.347056 13.919007 0.000000 0.000000 0.000000 0.000000 0.000000 0.000000 -3.653273 22.280099 5.839023 -92.437761 19.054404 18.928228 -1.677268 5.891444 -15.642572 3.722340 6.930349 16.531829 0.000000 0.000000 0.000000 0.000000 0.000000 0.000000 2.711595 -0.405023 -19.753597 -1.542471 -1.469747 0.046812 -0.603183 -3.827828 4.049024 0.000000 0.000000 0.000000 2.369184 -3.079202 -20.185726 -1.525945 0.825063 0.517854 -3.618445 6.649767 3.583061 0.000000 0.000000 0.000000
33.491236 75.417073 371.967730 -0.743068 -0.717514 20.030228 0.223249 -0.307976 -20.052237 0.027041 -0.322722 -0.021825 8.207139 -2.245276 -0.039182 0.000000 0.000000 0.000000 -0.575916 26.127409 -6.542996 109.368244 50.832952 -85.250059 -13.555705 -5.944144 -9.398550 -1.906031 -42.229228 13.506265 0.000000 0.000000 0.000000 0.000000 0.000000 0.000000 -4.126801 22.537210 6.040818 -92.132520 19.432697 19.149461 -1.967623 4.136172 -17.395824 2.223373 12.014161 22.072586 0.000000 0.000000 0.000000 0.000000 0.000000 0.000000 2.882891 -0.704595 -19.713114 -1.800914 -1.126898 -0.063950 -0.410983 -4.544286 3.967399 0.000000 0.000000 0.000000 2.484375 -3.051042 -20.231808 -1.612409 0.595395 0.504539 -3.607736 6.814434 3.639365 0.000000 0.000000 0.000000
